<?xml version="1.0" encoding="UTF-8"?><svg id="a" xmlns="http://www.w3.org/2000/svg" width="1920" height="1080" viewBox="0 0 1920 1080"><rect x="1507.74" y="60" width="352.26" height="270.97" rx="25" ry="25"/><rect x="1024.61" y="119.77" width="453.01" height="72.77" rx="25" ry="25"/><rect x="1024.61" y="222.68" width="453.01" height="48.52" rx="18.19" ry="18.19"/><path d="M1777.94,361.1c-23.73,0-43.03,19.3-43.03,43.03s19.3,43.03,43.03,43.03,43.03-19.3,43.03-43.03-19.3-43.03-43.03-43.03Z"/><path d="M1683.87,361.1h0c-20.57,0-37.81,14.51-42.03,33.83h0c-.32,1.44-.56,2.91-.73,4.41,0,.05-.01.1-.02.15-.07.67-.13,1.34-.17,2.01,0,.11-.02.21-.02.32-.04.77-.06,1.54-.06,2.32s.02,1.55.06,2.32c0,.11.02.21.02.32.04.67.09,1.35.17,2.01,0,.05.01.1.02.15.17,1.49.41,2.96.73,4.41h0c4.23,19.32,21.46,33.83,42.03,33.83,16.12,0,30.19-8.91,37.56-22.06-2.9-6.4-4.53-13.5-4.53-20.97s1.62-14.57,4.53-20.97c-7.37-13.15-21.44-22.06-37.56-22.06Z"/><path d="M1589.81,361.1h0c-23.73,0-43.03,19.3-43.03,43.03s19.3,43.03,43.03,43.03c16.12,0,30.19-8.91,37.56-22.06-2.9-6.4-4.53-13.5-4.53-20.97s1.63-14.57,4.53-20.97c-7.37-13.15-21.44-22.06-37.56-22.06Z"/></svg>