<?xml version="1.0" encoding="UTF-8"?><svg id="a" xmlns="http://www.w3.org/2000/svg" width="226.85" height="226.85" xmlns:xlink="http://www.w3.org/1999/xlink" viewBox="0 0 226.85 226.85"><defs><style>.c{fill:#fff;}.d{fill:url(#b);}</style><linearGradient id="b" x1="8.78" y1="8.78" x2="218.07" y2="218.07" gradientUnits="userSpaceOnUse"><stop offset="0" stop-color="#6441a5"/><stop offset="1" stop-color="#4a41a5"/></linearGradient></defs><rect class="d" width="226.85" height="226.85" rx="29.97" ry="29.97"/><circle class="c" cx="113.44" cy="113.42" r="28.42"/><path class="c" d="M170.28,113.42c.02-13.98-5.14-27.48-14.47-37.89-2.06-2.37-5.65-2.63-8.02-.57-2.37,2.06-2.63,5.65-.57,8.02.04.05.08.09.12.13,15.44,17.26,15.44,43.36,0,60.62-2.06,2.37-1.8,5.96.57,8.02,2.32,2.01,5.81,1.82,7.9-.44,9.33-10.41,14.49-23.91,14.47-37.89Z"/><path class="c" d="M79.55,83.12c2.13-2.31,1.99-5.9-.32-8.03-2.31-2.13-5.9-1.99-8.03.32-.04.04-.08.09-.12.13-19.32,21.57-19.32,54.21,0,75.78,2.13,2.31,5.73,2.45,8.03.32,2.25-2.08,2.45-5.58.44-7.9-15.45-17.25-15.45-43.37,0-60.62Z"/><path class="c" d="M192,80.27c-4.16-9.88-10.15-18.88-17.66-26.53-2.14-2.29-5.74-2.41-8.03-.27-2.29,2.14-2.41,5.74-.27,8.03.06.07.12.13.19.19,28.18,28.71,28.18,74.7,0,103.41-2.21,2.24-2.18,5.84.06,8.05,2.24,2.21,5.84,2.18,8.05-.06h0c24.06-24.57,31.02-61.18,17.66-92.86v.04Z"/><path class="c" d="M45.36,142.18c-11.61-27.45-5.58-59.19,15.3-80.46,2.2-2.24,2.17-5.84-.07-8.04s-5.84-2.17-8.04.07c-32.54,33.13-32.54,86.22,0,119.35,2.14,2.29,5.74,2.41,8.03.27,2.29-2.14,2.41-5.74.27-8.03-.06-.07-.12-.13-.19-.19-6.5-6.62-11.69-14.41-15.3-22.96Z"/></svg>